<svg width="700" height="323" viewBox="0 0 700 323" fill="none" xmlns="http://www.w3.org/2000/svg">
<path d="M267.821 192.802C264.493 192.802 261.485 192.055 258.797 190.562C256.109 189.026 253.997 186.892 252.461 184.162C250.925 181.388 250.157 178.188 250.157 174.562C250.157 170.978 250.946 167.799 252.525 165.026C254.104 162.252 256.258 160.119 258.989 158.626C261.72 157.132 264.77 156.386 268.141 156.386C271.512 156.386 274.562 157.132 277.293 158.626C280.024 160.119 282.178 162.252 283.757 165.026C285.336 167.799 286.125 170.978 286.125 174.562C286.125 178.146 285.314 181.324 283.693 184.098C282.072 186.871 279.853 189.026 277.037 190.562C274.264 192.055 271.192 192.802 267.821 192.802ZM267.821 186.466C269.698 186.466 271.448 186.018 273.069 185.122C274.733 184.226 276.077 182.882 277.101 181.09C278.125 179.298 278.637 177.122 278.637 174.562C278.637 172.002 278.146 169.847 277.165 168.098C276.184 166.306 274.882 164.962 273.261 164.066C271.64 163.17 269.89 162.722 268.013 162.722C266.136 162.722 264.386 163.17 262.765 164.066C261.186 164.962 259.928 166.306 258.989 168.098C258.05 169.847 257.581 172.002 257.581 174.562C257.581 178.359 258.541 181.303 260.461 183.394C262.424 185.442 264.877 186.466 267.821 186.466ZM312.41 156.386C315.183 156.386 317.658 156.962 319.834 158.114C322.052 159.266 323.78 160.972 325.018 163.234C326.255 165.495 326.874 168.226 326.874 171.426V192.226H319.642V172.514C319.642 169.356 318.852 166.946 317.274 165.282C315.695 163.575 313.54 162.722 310.81 162.722C308.079 162.722 305.903 163.575 304.282 165.282C302.703 166.946 301.914 169.356 301.914 172.514V192.226H294.618V156.962H301.914V160.994C303.108 159.543 304.623 158.412 306.458 157.602C308.335 156.791 310.319 156.386 312.41 156.386ZM369.78 173.73C369.78 175.052 369.695 176.247 369.524 177.314H342.58C342.793 180.13 343.839 182.391 345.716 184.098C347.593 185.804 349.897 186.658 352.628 186.658C356.553 186.658 359.327 185.015 360.948 181.73H368.82C367.753 184.972 365.812 187.639 362.996 189.73C360.223 191.778 356.767 192.802 352.628 192.802C349.257 192.802 346.228 192.055 343.54 190.562C340.895 189.026 338.804 186.892 337.268 184.162C335.775 181.388 335.028 178.188 335.028 174.562C335.028 170.935 335.753 167.756 337.204 165.026C338.697 162.252 340.767 160.119 343.412 158.626C346.1 157.132 349.172 156.386 352.628 156.386C355.956 156.386 358.921 157.111 361.524 158.562C364.127 160.012 366.153 162.06 367.604 164.706C369.055 167.308 369.78 170.316 369.78 173.73ZM362.164 171.426C362.121 168.738 361.161 166.583 359.284 164.962C357.407 163.34 355.081 162.53 352.308 162.53C349.791 162.53 347.636 163.34 345.844 164.962C344.052 166.54 342.985 168.695 342.644 171.426H362.164ZM409.984 156.962L388.352 208.802H380.8L387.968 191.65L374.08 156.962H382.208L392.128 183.842L402.432 156.962H409.984ZM424.066 186.338H439.106V192.226H416.77V147.746H424.066V186.338ZM478.808 173.73C478.808 175.052 478.722 176.247 478.552 177.314H451.608C451.821 180.13 452.866 182.391 454.744 184.098C456.621 185.804 458.925 186.658 461.656 186.658C465.581 186.658 468.354 185.015 469.976 181.73H477.848C476.781 184.972 474.84 187.639 472.024 189.73C469.25 191.778 465.794 192.802 461.656 192.802C458.285 192.802 455.256 192.055 452.568 190.562C449.922 189.026 447.832 186.892 446.296 184.162C444.802 181.388 444.056 178.188 444.056 174.562C444.056 170.935 444.781 167.756 446.232 165.026C447.725 162.252 449.794 160.119 452.44 158.626C455.128 157.132 458.2 156.386 461.656 156.386C464.984 156.386 467.949 157.111 470.552 158.562C473.154 160.012 475.181 162.06 476.632 164.706C478.082 167.308 478.808 170.316 478.808 173.73ZM471.192 171.426C471.149 168.738 470.189 166.583 468.312 164.962C466.434 163.34 464.109 162.53 461.336 162.53C458.818 162.53 456.664 163.34 454.872 164.962C453.08 166.54 452.013 168.695 451.672 171.426H471.192ZM505.06 156.386C507.833 156.386 510.308 156.962 512.484 158.114C514.702 159.266 516.43 160.972 517.668 163.234C518.905 165.495 519.524 168.226 519.524 171.426V192.226H512.292V172.514C512.292 169.356 511.502 166.946 509.924 165.282C508.345 163.575 506.19 162.722 503.46 162.722C500.729 162.722 498.553 163.575 496.932 165.282C495.353 166.946 494.564 169.356 494.564 172.514V192.226H487.268V156.962H494.564V160.994C495.758 159.543 497.273 158.412 499.108 157.602C500.985 156.791 502.969 156.386 505.06 156.386ZM527.678 174.434C527.678 170.892 528.403 167.756 529.854 165.026C531.347 162.295 533.353 160.183 535.87 158.69C538.43 157.154 541.267 156.386 544.382 156.386C546.686 156.386 548.947 156.898 551.166 157.922C553.427 158.903 555.219 160.226 556.542 161.89V144.866H563.902V192.226H556.542V186.914C555.347 188.62 553.683 190.028 551.55 191.138C549.459 192.247 547.049 192.802 544.318 192.802C541.246 192.802 538.43 192.034 535.87 190.498C533.353 188.919 531.347 186.743 529.854 183.97C528.403 181.154 527.678 177.975 527.678 174.434ZM556.542 174.562C556.542 172.13 556.03 170.018 555.006 168.226C554.025 166.434 552.723 165.068 551.102 164.13C549.481 163.191 547.731 162.722 545.854 162.722C543.977 162.722 542.227 163.191 540.606 164.13C538.985 165.026 537.662 166.37 536.638 168.162C535.657 169.911 535.166 172.002 535.166 174.434C535.166 176.866 535.657 178.999 536.638 180.834C537.662 182.668 538.985 184.076 540.606 185.058C542.27 185.996 544.019 186.466 545.854 186.466C547.731 186.466 549.481 185.996 551.102 185.058C552.723 184.119 554.025 182.754 555.006 180.962C556.03 179.127 556.542 176.994 556.542 174.562Z" fill="white"/>
<path d="M150.139 188.634C143.57 182.174 101.035 235.381 101.346 226.997C101.656 218.613 105.316 196.292 109.023 188.633C112.731 180.975 87.6259 149.114 121.762 155.048C114.837 126.595 137.425 70.4772 145.802 67.4797C154.18 64.4823 156.213 135.16 165.152 135.389C168.561 135.476 189.726 78.2476 199.287 62.7875C208.849 47.3274 204.957 122.252 206.833 135.389C208.71 148.525 208.71 154.155 221.847 155.048C269.973 147.568 227.082 166.943 231.602 174.122C244.638 203.868 246.787 242.948 236.465 229.812C236.465 229.812 205.5 187.587 199.287 181.956C193.075 176.326 177.35 228.873 170.782 223.243C164.214 217.614 156.707 195.093 150.139 188.634Z" fill="white"/>
<path d="M141.506 152.493H141.449C141.165 152.493 140.893 152.381 140.693 152.18C140.493 151.98 140.38 151.708 140.38 151.425C140.38 151.126 140.261 150.84 140.05 150.629C139.839 150.417 139.553 150.299 139.254 150.299C138.955 150.299 138.669 150.417 138.458 150.629C138.247 150.84 138.128 151.126 138.128 151.425C138.128 152.305 138.478 153.15 139.101 153.773C139.723 154.396 140.568 154.745 141.449 154.745H141.506V155.871C141.506 156.17 141.625 156.456 141.836 156.668C142.047 156.879 142.333 156.997 142.632 156.997C142.931 156.997 143.217 156.879 143.428 156.668C143.639 156.456 143.758 156.17 143.758 155.871V154.745C144.654 154.745 145.513 154.389 146.147 153.756C146.78 153.123 147.136 152.263 147.136 151.367C147.136 150.472 146.78 149.612 146.147 148.979C145.513 148.345 144.654 147.989 143.758 147.989V145.737H143.783C144.391 145.737 144.884 146.231 144.884 146.839C144.884 147.137 145.003 147.424 145.214 147.635C145.425 147.846 145.711 147.965 146.01 147.965C146.309 147.965 146.595 147.846 146.806 147.635C147.017 147.424 147.136 147.137 147.136 146.839C147.136 145.949 146.783 145.096 146.154 144.468C145.525 143.839 144.672 143.485 143.783 143.485H143.758V142.359C143.758 142.061 143.639 141.774 143.428 141.563C143.217 141.352 142.931 141.233 142.632 141.233C142.333 141.233 142.047 141.352 141.836 141.563C141.625 141.774 141.506 142.061 141.506 142.359V143.485C141.062 143.485 140.623 143.573 140.213 143.743C139.804 143.912 139.431 144.161 139.117 144.475C138.804 144.788 138.555 145.161 138.385 145.571C138.215 145.981 138.128 146.42 138.128 146.863C138.128 147.307 138.215 147.746 138.385 148.156C138.555 148.566 138.804 148.938 139.117 149.252C139.431 149.566 139.804 149.815 140.213 149.984C140.623 150.154 141.062 150.241 141.506 150.241V152.493ZM143.758 152.493V150.241C144.057 150.241 144.343 150.36 144.554 150.571C144.765 150.782 144.884 151.069 144.884 151.367C144.884 151.666 144.765 151.952 144.554 152.164C144.343 152.375 144.057 152.493 143.758 152.493ZM141.506 145.737V147.989C141.207 147.989 140.921 147.871 140.71 147.66C140.499 147.448 140.38 147.162 140.38 146.863C140.38 146.565 140.499 146.278 140.71 146.067C140.921 145.856 141.207 145.737 141.506 145.737ZM142.632 160.375C136.413 160.375 131.372 155.334 131.372 149.115C131.372 142.897 136.413 137.855 142.632 137.855C148.851 137.855 153.892 142.897 153.892 149.115C153.892 155.334 148.851 160.375 142.632 160.375Z" fill="black"/>
<path d="M184.669 152.493H184.612C184.328 152.493 184.057 152.381 183.856 152.18C183.656 151.98 183.543 151.708 183.543 151.425C183.543 151.126 183.425 150.84 183.213 150.629C183.002 150.417 182.716 150.299 182.417 150.299C182.119 150.299 181.832 150.417 181.621 150.629C181.41 150.84 181.291 151.126 181.291 151.425C181.291 152.305 181.641 153.15 182.264 153.773C182.887 154.396 183.731 154.745 184.612 154.745H184.669V155.871C184.669 156.17 184.788 156.456 184.999 156.668C185.21 156.879 185.497 156.997 185.795 156.997C186.094 156.997 186.38 156.879 186.591 156.668C186.803 156.456 186.921 156.17 186.921 155.871V154.745C187.817 154.745 188.676 154.389 189.31 153.756C189.943 153.123 190.299 152.263 190.299 151.367C190.299 150.472 189.943 149.612 189.31 148.979C188.676 148.345 187.817 147.989 186.921 147.989V145.737H186.946C187.554 145.737 188.047 146.231 188.047 146.839C188.047 147.137 188.166 147.424 188.377 147.635C188.588 147.846 188.875 147.965 189.173 147.965C189.472 147.965 189.758 147.846 189.969 147.635C190.181 147.424 190.299 147.137 190.299 146.839C190.299 145.949 189.946 145.096 189.317 144.468C188.688 143.839 187.835 143.485 186.946 143.485H186.921V142.359C186.921 142.061 186.803 141.774 186.591 141.563C186.38 141.352 186.094 141.233 185.795 141.233C185.497 141.233 185.21 141.352 184.999 141.563C184.788 141.774 184.669 142.061 184.669 142.359V143.485C184.226 143.485 183.786 143.573 183.377 143.743C182.967 143.912 182.594 144.161 182.281 144.475C181.967 144.788 181.718 145.161 181.548 145.571C181.379 145.981 181.291 146.42 181.291 146.863C181.291 147.307 181.379 147.746 181.548 148.156C181.718 148.566 181.967 148.938 182.281 149.252C182.594 149.566 182.967 149.815 183.377 149.984C183.786 150.154 184.226 150.241 184.669 150.241V152.493ZM186.921 152.493V150.241C187.22 150.241 187.506 150.36 187.717 150.571C187.929 150.782 188.047 151.069 188.047 151.367C188.047 151.666 187.929 151.952 187.717 152.164C187.506 152.375 187.22 152.493 186.921 152.493ZM184.669 145.737V147.989C184.371 147.989 184.084 147.871 183.873 147.66C183.662 147.448 183.543 147.162 183.543 146.863C183.543 146.565 183.662 146.278 183.873 146.067C184.084 145.856 184.371 145.737 184.669 145.737ZM185.795 160.375C179.576 160.375 174.535 155.334 174.535 149.115C174.535 142.897 179.576 137.855 185.795 137.855C192.014 137.855 197.055 142.897 197.055 149.115C197.055 155.334 192.014 160.375 185.795 160.375Z" fill="black"/>
</svg>
