<svg width="323" height="323" viewBox="0 0 323 323" fill="none" xmlns="http://www.w3.org/2000/svg">
<path d="M150.139 188.634C143.57 182.174 101.035 235.381 101.346 226.997C101.656 218.613 105.316 196.292 109.023 188.633C112.731 180.975 87.6259 149.114 121.762 155.048C114.837 126.595 137.425 70.4772 145.802 67.4797C154.18 64.4823 156.213 135.16 165.152 135.389C168.561 135.476 189.726 78.2476 199.287 62.7875C208.849 47.3274 204.957 122.252 206.833 135.389C208.71 148.525 208.71 154.155 221.847 155.048C269.973 147.568 227.082 166.943 231.602 174.122C244.638 203.868 246.787 242.948 236.465 229.812C236.465 229.812 205.5 187.587 199.287 181.956C193.075 176.326 177.35 228.873 170.782 223.243C164.214 217.614 156.707 195.093 150.139 188.634Z" fill="white"/>
<path d="M141.506 152.493H141.449C141.165 152.493 140.893 152.381 140.693 152.18C140.493 151.98 140.38 151.708 140.38 151.425C140.38 151.126 140.261 150.84 140.05 150.629C139.839 150.417 139.553 150.299 139.254 150.299C138.955 150.299 138.669 150.417 138.458 150.629C138.247 150.84 138.128 151.126 138.128 151.425C138.128 152.305 138.478 153.15 139.101 153.773C139.723 154.396 140.568 154.745 141.449 154.745H141.506V155.871C141.506 156.17 141.625 156.456 141.836 156.668C142.047 156.879 142.333 156.997 142.632 156.997C142.931 156.997 143.217 156.879 143.428 156.668C143.639 156.456 143.758 156.17 143.758 155.871V154.745C144.654 154.745 145.513 154.389 146.147 153.756C146.78 153.123 147.136 152.263 147.136 151.367C147.136 150.472 146.78 149.612 146.147 148.979C145.513 148.345 144.654 147.989 143.758 147.989V145.737H143.783C144.391 145.737 144.884 146.231 144.884 146.839C144.884 147.137 145.003 147.424 145.214 147.635C145.425 147.846 145.711 147.965 146.01 147.965C146.309 147.965 146.595 147.846 146.806 147.635C147.017 147.424 147.136 147.137 147.136 146.839C147.136 145.949 146.783 145.096 146.154 144.468C145.525 143.839 144.672 143.485 143.783 143.485H143.758V142.359C143.758 142.061 143.639 141.774 143.428 141.563C143.217 141.352 142.931 141.233 142.632 141.233C142.333 141.233 142.047 141.352 141.836 141.563C141.625 141.774 141.506 142.061 141.506 142.359V143.485C141.062 143.485 140.623 143.573 140.213 143.743C139.804 143.912 139.431 144.161 139.117 144.475C138.804 144.788 138.555 145.161 138.385 145.571C138.215 145.981 138.128 146.42 138.128 146.863C138.128 147.307 138.215 147.746 138.385 148.156C138.555 148.566 138.804 148.938 139.117 149.252C139.431 149.566 139.804 149.815 140.213 149.984C140.623 150.154 141.062 150.241 141.506 150.241V152.493ZM143.758 152.493V150.241C144.057 150.241 144.343 150.36 144.554 150.571C144.765 150.782 144.884 151.069 144.884 151.367C144.884 151.666 144.765 151.952 144.554 152.164C144.343 152.375 144.057 152.493 143.758 152.493ZM141.506 145.737V147.989C141.207 147.989 140.921 147.871 140.71 147.66C140.499 147.448 140.38 147.162 140.38 146.863C140.38 146.565 140.499 146.278 140.71 146.067C140.921 145.856 141.207 145.737 141.506 145.737ZM142.632 160.375C136.413 160.375 131.372 155.334 131.372 149.115C131.372 142.897 136.413 137.855 142.632 137.855C148.851 137.855 153.892 142.897 153.892 149.115C153.892 155.334 148.851 160.375 142.632 160.375Z" fill="black"/>
<path d="M184.669 152.493H184.612C184.328 152.493 184.057 152.381 183.856 152.18C183.656 151.98 183.543 151.708 183.543 151.425C183.543 151.126 183.425 150.84 183.213 150.629C183.002 150.417 182.716 150.299 182.417 150.299C182.119 150.299 181.832 150.417 181.621 150.629C181.41 150.84 181.291 151.126 181.291 151.425C181.291 152.305 181.641 153.15 182.264 153.773C182.887 154.396 183.731 154.745 184.612 154.745H184.669V155.871C184.669 156.17 184.788 156.456 184.999 156.668C185.21 156.879 185.497 156.997 185.795 156.997C186.094 156.997 186.38 156.879 186.591 156.668C186.803 156.456 186.921 156.17 186.921 155.871V154.745C187.817 154.745 188.676 154.389 189.31 153.756C189.943 153.123 190.299 152.263 190.299 151.367C190.299 150.472 189.943 149.612 189.31 148.979C188.676 148.345 187.817 147.989 186.921 147.989V145.737H186.946C187.554 145.737 188.047 146.231 188.047 146.839C188.047 147.137 188.166 147.424 188.377 147.635C188.588 147.846 188.875 147.965 189.173 147.965C189.472 147.965 189.758 147.846 189.969 147.635C190.181 147.424 190.299 147.137 190.299 146.839C190.299 145.949 189.946 145.096 189.317 144.468C188.688 143.839 187.835 143.485 186.946 143.485H186.921V142.359C186.921 142.061 186.803 141.774 186.591 141.563C186.38 141.352 186.094 141.233 185.795 141.233C185.497 141.233 185.21 141.352 184.999 141.563C184.788 141.774 184.669 142.061 184.669 142.359V143.485C184.226 143.485 183.786 143.573 183.377 143.743C182.967 143.912 182.594 144.161 182.281 144.475C181.967 144.788 181.718 145.161 181.548 145.571C181.379 145.981 181.291 146.42 181.291 146.863C181.291 147.307 181.379 147.746 181.548 148.156C181.718 148.566 181.967 148.938 182.281 149.252C182.594 149.566 182.967 149.815 183.377 149.984C183.786 150.154 184.226 150.241 184.669 150.241V152.493ZM186.921 152.493V150.241C187.22 150.241 187.506 150.36 187.717 150.571C187.929 150.782 188.047 151.069 188.047 151.367C188.047 151.666 187.929 151.952 187.717 152.164C187.506 152.375 187.22 152.493 186.921 152.493ZM184.669 145.737V147.989C184.371 147.989 184.084 147.871 183.873 147.66C183.662 147.448 183.543 147.162 183.543 146.863C183.543 146.565 183.662 146.278 183.873 146.067C184.084 145.856 184.371 145.737 184.669 145.737ZM185.795 160.375C179.576 160.375 174.535 155.334 174.535 149.115C174.535 142.897 179.576 137.855 185.795 137.855C192.014 137.855 197.055 142.897 197.055 149.115C197.055 155.334 192.014 160.375 185.795 160.375Z" fill="black"/>
</svg>
